# xmcd
#
# Track frame offsets: 
#        183
#        14290
#        28458
#        38728
#        53263
#        75675
#        89555
#        106793
#        119658
#        134608
#        145125
#        161460
#        178480
#        192020
#        205220
#
# Disc length: 2962 seconds
#
# Revision: 0
# Processed by: cddbd v1.5.2PL0 Copyright (c) Steve Scherf et al.
# Submitted via: ExactAudioCopyFreeDBPlugin 1.0
#
DISCID=cf0b900f
DTITLE=關正傑 - 關正傑雷射金曲
DYEAR=1983
DGENRE=廣東歌
TTITLE0=在那遙遠的地方
TTITLE1=萬水千山縱橫
TTITLE2=醉紅塵
TTITLE3=關正傑、關菊英 - 兩忘煙水裡
TTITLE4=恨綿綿
TTITLE5=天蠶變
TTITLE6=殘夢
TTITLE7=天龍訣
TTITLE8=雪中情
TTITLE9=大地恩情
TTITLE10=關正傑、黃露兒 - 常在我心間
TTITLE11=詠梅
TTITLE12=英雄出少年
TTITLE13=雷安娜、關正傑 - 人在旅途洒淚時
TTITLE14=一點燭光
EXTD=
EXTT0=
EXTT1=
EXTT2=
EXTT3=
EXTT4=
EXTT5=
EXTT6=
EXTT7=
EXTT8=
EXTT9=
EXTT10=
EXTT11=
EXTT12=
EXTT13=
EXTT14=
PLAYORDER=
